<?xml version="1.0" encoding="utf-8"?>
<!-- Generator: Adobe Illustrator 24.3.0, SVG Export Plug-In . SVG Version: 6.00 Build 0)  -->
<svg version="1.1" id="Layer_1" xmlns="http://www.w3.org/2000/svg" xmlns:xlink="http://www.w3.org/1999/xlink" x="0px" y="0px"
	 viewBox="0 0 578 78" style="enable-background:new 0 0 578 78;" xml:space="preserve">
<style type="text/css">
	.st0{fill:#FFFFFF;}
	.st1{fill:#0080FF;}
</style>
<g>
	<g>
		<path class="st0" d="M68.5,21.2h-23v43h-8.8v-43H13.8v-8.7h54.7V21.2z"/>
		<path class="st0" d="M107.1,43.2H86.8v20.9H78V12.5h32.2c12.5,0,19.7,6,19.7,15.1c0,7.8-5.6,13.4-13.1,14.5
			c2.6,9.3,4.3,14.7,8.7,14.7c1.5,0,3-0.5,4.4-1.1v8.5c-3,1-5.6,1.5-7.8,1.5C113.4,65.6,111.8,54.7,107.1,43.2z M109.6,35.5
			c3.8,0,9.4-2.7,9.4-7.6c0-4.4-3.3-6.9-10.3-6.9c-6.4,0-13,0.1-22,0.2v14.4H109.6z"/>
		<path class="st0" d="M180.3,49.4h-27.9c-2.1,4.4-4.5,9.4-7.1,14.8h-9.8l25.3-51.7H172l25.3,51.7h-9.8L180.3,49.4z M156.5,40.8
			h19.7L167.1,22h-1.5L156.5,40.8z"/>
		<path class="st0" d="M257.3,36.8c0,15.7-10.2,27.4-26,27.4h-25.6V12.5l25.6-0.1C246.8,12.4,257.3,22.3,257.3,36.8z M228.5,55.9
			c12,0,19.2-7.7,19.2-18.8c0-10.1-7.2-16.2-19.1-16.2L214.6,21v34.9H228.5z"/>
		<path class="st0" d="M354.4,48.8l18.2-36.3h11.1v51.7h-8.8V28.1c-3.6,6.7-14.8,29.5-18.4,36.1h-4.2L334,28.1v36.1h-8.8V12.5h11
			C339.8,19.3,350.9,42,354.4,48.8z"/>
		<path class="st0" d="M437.8,49.4h-27.9c-2.1,4.4-4.5,9.4-7.1,14.8h-9.8l25.3-51.7h11.3l25.3,51.7h-9.8L437.8,49.4z M414,40.8h19.7
			L424.6,22h-1.5L414,40.8z"/>
		<path class="st0" d="M506.3,21.2h-23v43h-8.8v-43h-22.9v-8.7h54.7V21.2z"/>
		<path class="st0" d="M564.2,64.1h-48.3V12.5h46.9v8.7h-38.2v12h31.7V42h-31.7v13.6h39.6V64.1z"/>
	</g>
	<rect x="265.5" y="55.6" class="st1" width="48.3" height="8.5"/>
	<rect x="282.6" y="12.4" class="st1" width="31.2" height="8.5"/>
	<rect x="274" y="34" class="st1" width="39.8" height="8.5"/>
</g>
</svg>
