<?xml version="1.0" encoding="UTF-8" standalone="no"?>
<!DOCTYPE svg PUBLIC "-//W3C//DTD SVG 1.1//EN" "http://www.w3.org/Graphics/SVG/1.1/DTD/svg11.dtd">
<svg version="1.1" xmlns="http://www.w3.org/2000/svg" xmlns:xlink="http://www.w3.org/1999/xlink" preserveAspectRatio="xMidYMid meet" viewBox="0 0 330 480" width="330" height="480"><defs><path d="M44.6 325.49C44.6 378.15 -2.58 420.9 -60.71 420.9C-118.83 420.9 -166.02 378.15 -166.02 325.49C-166.02 272.83 -118.83 230.08 -60.71 230.08C-2.58 230.08 44.6 272.83 44.6 325.49Z" id="cD1nwwrdx"></path><path d="M440.9 82.4C440.9 119.96 407.23 150.45 365.77 150.45C324.31 150.45 290.65 119.96 290.65 82.4C290.65 44.84 324.31 14.35 365.77 14.35C407.23 14.35 440.9 44.84 440.9 82.4Z" id="b14EjkiAHf"></path><path d="M426.43 354.65C426.43 389.97 394.22 418.64 354.55 418.64C314.87 418.64 282.66 389.97 282.66 354.65C282.66 319.34 314.87 290.67 354.55 290.67C394.22 290.67 426.43 319.34 426.43 354.65Z" id="bk82ni4AP"></path></defs><g><g><g><use xlink:href="#cD1nwwrdx" opacity="1" fill="#0c46c2" fill-opacity="1"></use></g><g><use xlink:href="#b14EjkiAHf" opacity="1" fill="#0c46c2" fill-opacity="1"></use></g><g><use xlink:href="#bk82ni4AP" opacity="1" fill="#ffc800" fill-opacity="1"></use></g></g></g></svg>