<svg xmlns="http://www.w3.org/2000/svg" viewBox="0 0 164.34 36.7"><defs><style>.cls-1{fill:#403999;}.cls-2{fill:#1a1a1a;}</style></defs><g id="Layer_2" data-name="Layer 2"><g id="Layer_2-2" data-name="Layer 2"><path class="cls-1" d="M11.52,2.65a5.55,5.55,0,0,1,.29.48,8.16,8.16,0,0,1,1,4,8.32,8.32,0,0,1-8.3,8.29,7.52,7.52,0,0,1-.82-.05,5.4,5.4,0,0,1-.58-.08,19.37,19.37,0,0,0-.24,3.07A18,18,0,0,0,13.78,35.21l.19.08.42.16.85.31.66.2.44.12.68.16a19.91,19.91,0,0,0,4.28.46h.49c.25,0,.49,0,.74,0h.24l.23,0,.24,0,.71-.08a17.86,17.86,0,0,0,10.54-5.34A16.79,16.79,0,0,0,37,27.73h0l-9.11-5.21h0a5.93,5.93,0,0,1-.29.56,2.39,2.39,0,0,1-.13.21l-.13.2-.15.2c-.12.16-.26.32-.39.47l-.17.17-.09.09-.33.29a7.88,7.88,0,0,1-5.07,1.71,7.78,7.78,0,0,1-5.61-2.23c-.18-.18-.34-.37-.5-.56l-.23-.3c-.14-.21-.28-.42-.41-.64l-.09-.17-.18-.34a8.83,8.83,0,0,1-.82-3.83,8.55,8.55,0,0,1,1.29-4.66l.21-.31.23-.3c.16-.19.32-.38.5-.56a7.78,7.78,0,0,1,5.61-2.23,8.55,8.55,0,0,1,2.68.41l.25.09.12,0,.24.1h0l.23.1.56.29.21.13.31.21.2.15.2.15a6.69,6.69,0,0,1,1.75,2.22L36.9,9,37,8.9A17.92,17.92,0,0,0,21.3,0,18.75,18.75,0,0,0,11.52,2.65Z"/><path class="cls-1" d="M9.07,7.12a4.45,4.45,0,0,0-.56-2.18,4.53,4.53,0,1,0-4.43,6.68,3.4,3.4,0,0,0,.45,0A4.55,4.55,0,0,0,9.07,7.12Z"/><path class="cls-2" d="M43.33,18.57A7.35,7.35,0,0,1,57,14.79L53.33,16.9a2.87,2.87,0,0,0-2.69-1.55,3.05,3.05,0,0,0-3.14,3.22,3.06,3.06,0,0,0,3.14,3.22,2.83,2.83,0,0,0,2.69-1.56L57,22.32a7.11,7.11,0,0,1-6.28,3.58A7.2,7.2,0,0,1,43.33,18.57Z"/><path class="cls-2" d="M72.6,11.62V25.51H68.44V24.2a5.21,5.21,0,0,1-4.14,1.7c-3.64,0-6.64-3.2-6.64-7.33s3-7.33,6.64-7.33a5.21,5.21,0,0,1,4.14,1.69V11.62Zm-4.16,7a3.31,3.31,0,1,0-6.61,0,3.31,3.31,0,1,0,6.61,0Z"/><path class="cls-2" d="M84,11.35v4.72c-1.73-.28-4.17.41-4.17,3.16v6.28H75.66V11.62h4.16V14.1A4.18,4.18,0,0,1,84,11.35Z"/><path class="cls-2" d="M85.93,5.24h4.16V25.51H85.93Z"/><path class="cls-2" d="M107.39,11.62V25.51h-4.16V24.2a5.21,5.21,0,0,1-4.14,1.7c-3.64,0-6.64-3.2-6.64-7.33s3-7.33,6.64-7.33a5.21,5.21,0,0,1,4.14,1.69V11.62Zm-4.16,7a3.31,3.31,0,1,0-6.61,0,3.31,3.31,0,1,0,6.61,0Z"/><path class="cls-2" d="M114,13v9c0,2.44,1.3,2.5,4.14,2.25v1.25c-3.64.55-5.56-.33-5.56-3.5V13h-3V11.62h3V8.15L114,7.74v3.88h4.14V13Z"/><path class="cls-2" d="M133.77,18.62c0,.23,0,.45,0,.67H121.16a5.66,5.66,0,0,0,5.89,5.19A5.29,5.29,0,0,0,131.86,22l1.22.72A6.85,6.85,0,0,1,127,25.82a7,7,0,0,1-7.3-7.25,7,7,0,0,1,7.19-7.25C131.13,11.32,133.77,14.82,133.77,18.62Zm-12.61-.69h11.17a5.4,5.4,0,0,0-5.42-5.28A5.61,5.61,0,0,0,121.16,17.93Z"/><path class="cls-2" d="M136.08,18.57a7.11,7.11,0,0,1,7.3-7.25,6.5,6.5,0,0,1,6.05,3.55l-1.14.67a5.27,5.27,0,0,0-4.91-2.89,5.81,5.81,0,0,0-5.89,5.92,5.81,5.81,0,0,0,5.89,5.91,5.54,5.54,0,0,0,5-2.89l1.16.7a6.81,6.81,0,0,1-6.16,3.53A7.11,7.11,0,0,1,136.08,18.57Z"/><path class="cls-2" d="M164.34,16.87v8.64h-1.41V16.87c0-2.55-1.47-4.22-4.09-4.22S154,14.43,154,18.18v7.33H152.6V6.07H154v8.19a5.23,5.23,0,0,1,5-2.94C162.26,11.32,164.34,13.51,164.34,16.87Z"/></g></g></svg>