<svg xmlns="http://www.w3.org/2000/svg" width="144.231" height="30" viewBox="0 0 144.231 30">
  <g id="Group_13" data-name="Group 13" transform="translate(-186.835 -1100)">
    <g id="Group_12" data-name="Group 12" transform="translate(48.835 252)">
      <g id="Layer_2" data-name="Layer 2" transform="translate(137.995 848.001)">
        <g id="Layer_2-2" data-name="Layer 2" transform="translate(0.005 -0.001)">
          <path id="Path_20" data-name="Path 20" d="M9.94,2.166a4.536,4.536,0,0,1,.237.392,6.67,6.67,0,0,1,.817,3.27A6.8,6.8,0,0,1,4.21,12.6a6.147,6.147,0,0,1-.67-.041,4.414,4.414,0,0,1-.474-.065,15.833,15.833,0,0,0-.2,2.509,14.713,14.713,0,0,0,8.918,13.773l.155.065.343.131.695.253.539.163.36.1.556.131a16.275,16.275,0,0,0,3.5.376H19.52l.58-.065a14.6,14.6,0,0,0,8.615-4.365,13.724,13.724,0,0,0,2.052-2.9h0l-7.447-4.259h0a4.848,4.848,0,0,1-.237.458,1.953,1.953,0,0,1-.106.172l-.106.163-.123.163c-.1.131-.213.262-.319.384l-.139.139-.074.074-.27.237A6.441,6.441,0,0,1,17.8,21.6a6.359,6.359,0,0,1-4.586-1.823c-.147-.147-.278-.3-.409-.458l-.188-.245c-.114-.172-.229-.343-.335-.523l-.074-.139-.147-.278A7.218,7.218,0,0,1,11.4,15,6.989,6.989,0,0,1,12.45,11.19l.172-.253.188-.245c.131-.155.262-.311.409-.458A6.359,6.359,0,0,1,17.8,8.411a6.989,6.989,0,0,1,2.191.335l.2.074h.1l.2.082h0l.188.082.458.237.172.106.253.172.163.123.163.123a5.468,5.468,0,0,1,1.43,1.815l7.365-4.2.082-.082A14.648,14.648,0,0,0,17.934,0,15.326,15.326,0,0,0,9.94,2.166Z" transform="translate(-0.528 0.001)" fill="#76b7e8"/>
          <path id="Path_21" data-name="Path 21" d="M7.415,6.291A3.637,3.637,0,0,0,6.957,4.51,3.7,3.7,0,1,0,3.336,9.97a2.78,2.78,0,0,0,.368,0A3.719,3.719,0,0,0,7.415,6.291Z" transform="translate(-0.005 -0.47)" fill="#76b7e8"/>
          <path id="Path_22" data-name="Path 22" d="M43.33,17.223A6.008,6.008,0,0,1,54.5,14.133l-3,1.725a2.346,2.346,0,0,0-2.2-1.267,2.493,2.493,0,0,0-2.567,2.632,2.5,2.5,0,0,0,2.567,2.632,2.313,2.313,0,0,0,2.2-1.275l3,1.708a5.812,5.812,0,0,1-5.133,2.926,5.885,5.885,0,0,1-6.041-5.992Z" transform="translate(-7.915 -2.042)" fill="#fff"/>
          <path id="Path_23" data-name="Path 23" d="M69.872,11.549V22.9h-3.4V21.832a4.259,4.259,0,0,1-3.384,1.39A5.7,5.7,0,0,1,57.66,17.23a5.7,5.7,0,0,1,5.428-5.992,4.259,4.259,0,0,1,3.384,1.381V11.549Zm-3.4,5.722a2.706,2.706,0,1,0-5.4,0,2.706,2.706,0,1,0,5.4,0Z" transform="translate(-10.532 -2.05)" fill="#fff"/>
          <path id="Path_24" data-name="Path 24" d="M82.477,11.349v3.858c-1.414-.229-3.409.335-3.409,2.583v5.133H75.66V11.569h3.4V13.6A3.417,3.417,0,0,1,82.477,11.349Z" transform="translate(-13.819 -2.07)" fill="#fff"/>
          <path id="Path_25" data-name="Path 25" d="M85.93,5.24h3.4V21.809h-3.4Z" transform="translate(-15.694 -0.956)" fill="#fff"/>
          <path id="Path_26" data-name="Path 26" d="M104.662,11.549V22.9h-3.4V21.832a4.259,4.259,0,0,1-3.384,1.39A5.7,5.7,0,0,1,92.45,17.23a5.7,5.7,0,0,1,5.428-5.992,4.259,4.259,0,0,1,3.384,1.381V11.549Zm-3.4,5.722a2.706,2.706,0,1,0-5.4,0,2.706,2.706,0,1,0,5.4,0Z" transform="translate(-16.885 -2.05)" fill="#fff"/>
        </g>
      </g>
    </g>
    <path id="Path_41" data-name="Path 41" d="M7.326-9.922V-11H4.048v-3.08l-1.122.33V-11H.506v1.078h2.42v7.15C2.926-.264,4.444.44,7.326,0V-.99c-2.244.2-3.278.154-3.278-1.782v-7.15Zm3.74,1.078V-11h-1.1V0h1.1V-6.116c0-2.816,1.782-3.982,3.674-3.982v-1.056A3.7,3.7,0,0,0,11.066-8.844ZM25.982-11v2.486a5.289,5.289,0,0,0-4.73-2.728,5.681,5.681,0,0,0-5.7,5.742,5.681,5.681,0,0,0,5.7,5.742,5.289,5.289,0,0,0,4.73-2.728V0H27.1V-11ZM21.34-.814A4.63,4.63,0,0,1,16.676-5.5a4.63,4.63,0,0,1,4.664-4.686A4.611,4.611,0,0,1,25.982-5.5,4.611,4.611,0,0,1,21.34-.814ZM40.194-15.4v6.952a5.212,5.212,0,0,0-4.73-2.794,5.667,5.667,0,0,0-5.7,5.742,5.667,5.667,0,0,0,5.7,5.742,5.212,5.212,0,0,0,4.73-2.794V0h1.1V-15.4ZM35.53-.814A4.63,4.63,0,0,1,30.866-5.5a4.63,4.63,0,0,1,4.664-4.686A4.63,4.63,0,0,1,40.194-5.5,4.63,4.63,0,0,1,35.53-.814Zm14.1-10.428a5.549,5.549,0,0,0-5.7,5.742A5.558,5.558,0,0,0,49.72.242a5.421,5.421,0,0,0,4.8-2.486l-.968-.572a4.185,4.185,0,0,1-3.806,2,4.478,4.478,0,0,1-4.664-4.114h9.966c0-.176.022-.352.022-.528A5.51,5.51,0,0,0,49.632-11.242Zm0,1.056a4.271,4.271,0,0,1,4.29,4.18H45.078A4.434,4.434,0,0,1,49.632-10.186Z" transform="translate(276 1121)" fill="#fff"/>
  </g>
</svg>
