<?xml version="1.0" encoding="utf-8"?>
<!-- Generator: Adobe Illustrator 24.3.0, SVG Export Plug-In . SVG Version: 6.00 Build 0)  -->
<svg version="1.1" id="Layer_1" xmlns="http://www.w3.org/2000/svg" xmlns:xlink="http://www.w3.org/1999/xlink" x="0px" y="0px"
	 viewBox="0 0 401 72" style="enable-background:new 0 0 401 72;" xml:space="preserve">
<style type="text/css">
	.st0{fill:#FFFFFF;}
</style>
<g>
	<g>
		<g>
			<g>
				<path class="st0" d="M119.7,22.4V28h-9.3v29.3h-7V28h-9.3v-5.7H119.7z"/>
				<path class="st0" d="M133.1,30.4c1.5-0.8,3.1-1.3,5-1.3v7.4h-1.9c-2.2,0-3.9,0.5-5,1.6c-1.1,1-1.7,2.8-1.7,5.4v13.8h-7V29.6h7
					v4.3C130.4,32.4,131.6,31.3,133.1,30.4z"/>
				<path class="st0" d="M143.6,35.9c1.1-2.2,2.6-3.8,4.6-5c1.9-1.2,4.1-1.8,6.4-1.8c2.1,0,3.9,0.4,5.4,1.3c1.6,0.8,2.8,1.9,3.7,3.2
					v-4h7.1v27.7h-7.1v-4.1c-0.9,1.3-2.1,2.4-3.7,3.2c-1.6,0.9-3.4,1.3-5.5,1.3c-2.3,0-4.5-0.6-6.4-1.8c-1.9-1.2-3.4-2.9-4.6-5.1
					c-1.1-2.2-1.7-4.7-1.7-7.5C142,40.5,142.5,38.1,143.6,35.9z M162.8,39.1c-0.7-1.2-1.6-2.2-2.7-2.8c-1.1-0.7-2.4-1-3.7-1
					s-2.5,0.3-3.6,1c-1.1,0.6-2,1.6-2.7,2.8c-0.7,1.2-1,2.7-1,4.3c0,1.7,0.3,3.1,1,4.4c0.7,1.3,1.6,2.2,2.7,2.9c1.1,0.7,2.3,1,3.6,1
					c1.3,0,2.5-0.3,3.7-1c1.1-0.7,2-1.6,2.7-2.8c0.7-1.2,1-2.7,1-4.4C163.8,41.7,163.4,40.3,162.8,39.1z"/>
				<path class="st0" d="M178.6,35.9c1.1-2.2,2.6-3.8,4.6-5c1.9-1.2,4.1-1.8,6.5-1.8c1.8,0,3.5,0.4,5.2,1.2c1.6,0.8,2.9,1.8,3.9,3.1
					V20.3h7.1v37h-7.1v-4.1c-0.9,1.4-2.1,2.5-3.7,3.3c-1.6,0.8-3.4,1.3-5.5,1.3c-2.3,0-4.5-0.6-6.4-1.8c-1.9-1.2-3.5-2.9-4.6-5.1
					c-1.1-2.2-1.7-4.7-1.7-7.5C176.9,40.5,177.4,38.1,178.6,35.9z M197.7,39.1c-0.7-1.2-1.6-2.2-2.7-2.8c-1.1-0.7-2.4-1-3.7-1
					s-2.5,0.3-3.6,1c-1.1,0.6-2,1.6-2.7,2.8c-0.7,1.2-1,2.7-1,4.3c0,1.7,0.3,3.1,1,4.4c0.7,1.3,1.6,2.2,2.7,2.9c1.1,0.7,2.3,1,3.6,1
					c1.3,0,2.5-0.3,3.7-1c1.1-0.7,2-1.6,2.7-2.8c0.7-1.2,1-2.7,1-4.4C198.7,41.7,198.4,40.3,197.7,39.1z"/>
				<path class="st0" d="M239.2,45.6h-20.3c0.2,2,0.9,3.6,2.1,4.7c1.2,1.1,2.8,1.7,4.6,1.7c2.6,0,4.5-1.1,5.6-3.4h7.6
					c-0.8,2.7-2.3,4.9-4.6,6.6c-2.3,1.7-5.1,2.6-8.4,2.6c-2.7,0-5.1-0.6-7.2-1.8c-2.1-1.2-3.8-2.9-5-5c-1.2-2.2-1.8-4.7-1.8-7.5
					c0-2.9,0.6-5.4,1.8-7.6c1.2-2.2,2.8-3.8,4.9-5c2.1-1.2,4.5-1.8,7.3-1.8c2.6,0,5,0.6,7.1,1.7c2.1,1.1,3.7,2.7,4.9,4.8
					c1.2,2.1,1.7,4.5,1.7,7.2C239.4,43.8,239.3,44.8,239.2,45.6z M232.1,40.8c0-1.8-0.7-3.2-2-4.3c-1.3-1.1-2.8-1.6-4.7-1.6
					c-1.7,0-3.2,0.5-4.4,1.6c-1.2,1.1-1.9,2.5-2.2,4.4H232.1z"/>
				<path class="st0" d="M288.2,32.3c2.1,2.1,3.1,5,3.1,8.7v16.3h-7V42c0-2.2-0.6-3.8-1.7-5c-1.1-1.2-2.6-1.7-4.5-1.7
					c-1.9,0-3.4,0.6-4.5,1.7c-1.1,1.2-1.7,2.8-1.7,5v15.3h-7V42c0-2.2-0.6-3.8-1.7-5s-2.6-1.7-4.5-1.7c-1.9,0-3.5,0.6-4.6,1.7
					c-1.1,1.2-1.7,2.8-1.7,5v15.3h-7V29.6h7v3.4c0.9-1.2,2.1-2.1,3.5-2.8c1.4-0.7,3-1,4.7-1c2.2,0,4.1,0.5,5.8,1.4
					c1.7,0.9,3,2.2,4,3.9c0.9-1.6,2.2-2.9,3.9-3.9c1.7-1,3.6-1.5,5.6-1.5C283.3,29.2,286.1,30.2,288.2,32.3z"/>
				<path class="st0" d="M298.8,35.9c1.1-2.2,2.6-3.8,4.6-5c1.9-1.2,4.1-1.8,6.4-1.8c2.1,0,3.9,0.4,5.4,1.3c1.6,0.8,2.8,1.9,3.7,3.2
					v-4h7.1v27.7H319v-4.1c-0.9,1.3-2.1,2.4-3.7,3.2c-1.6,0.9-3.4,1.3-5.5,1.3c-2.3,0-4.5-0.6-6.4-1.8c-1.9-1.2-3.4-2.9-4.6-5.1
					c-1.1-2.2-1.7-4.7-1.7-7.5C297.1,40.5,297.7,38.1,298.8,35.9z M318,39.1c-0.7-1.2-1.6-2.2-2.7-2.8c-1.1-0.7-2.4-1-3.7-1
					c-1.3,0-2.5,0.3-3.6,1c-1.1,0.6-2,1.6-2.7,2.8c-0.7,1.2-1,2.7-1,4.3c0,1.7,0.3,3.1,1,4.4c0.7,1.3,1.6,2.2,2.7,2.9
					c1.1,0.7,2.3,1,3.6,1c1.3,0,2.5-0.3,3.7-1c1.1-0.7,2-1.6,2.7-2.8c0.7-1.2,1-2.7,1-4.4C319,41.7,318.6,40.3,318,39.1z"/>
				<path class="st0" d="M342,35.3v13.4c0,0.9,0.2,1.6,0.7,2c0.5,0.4,1.2,0.6,2.3,0.6h3.3v5.9h-4.4c-5.9,0-8.9-2.9-8.9-8.6V35.3
					h-3.3v-5.8h3.3v-6.9h7.1v6.9h6.2v5.8H342z"/>
				<path class="st0" d="M379.9,45.6h-20.3c0.2,2,0.9,3.6,2.1,4.7c1.2,1.1,2.8,1.7,4.6,1.7c2.6,0,4.5-1.1,5.6-3.4h7.6
					c-0.8,2.7-2.3,4.9-4.6,6.6c-2.3,1.7-5.1,2.6-8.4,2.6c-2.7,0-5.1-0.6-7.2-1.8c-2.1-1.2-3.8-2.9-5-5c-1.2-2.2-1.8-4.7-1.8-7.5
					c0-2.9,0.6-5.4,1.8-7.6c1.2-2.2,2.8-3.8,4.9-5c2.1-1.2,4.5-1.8,7.3-1.8c2.6,0,5,0.6,7.1,1.7c2.1,1.1,3.7,2.7,4.9,4.8
					c1.2,2.1,1.7,4.5,1.7,7.2C380.1,43.8,380,44.8,379.9,45.6z M372.8,40.8c0-1.8-0.7-3.2-2-4.3c-1.3-1.1-2.8-1.6-4.7-1.6
					c-1.7,0-3.2,0.5-4.4,1.6c-1.2,1.1-1.9,2.5-2.2,4.4H372.8z"/>
			</g>
		</g>
		<g>
			<path class="st0" d="M30.3,13c-1.7-1.7-4.5-1.7-6.2,0c-1.7,1.7-1.7,4.5,0,6.2l41.2,41.2c0.9,0.9,2,1.3,3.1,1.3
				c1.1,0,2.2-0.4,3.1-1.3c1.7-1.7,1.7-4.5,0-6.2L30.3,13z"/>
			<path class="st0" d="M74.1,32.4L52,10.4c-1.7-1.7-4.5-1.7-6.2,0c-1.7,1.7-1.7,4.5,0,6.2l22.1,22.1c0.9,0.9,2,1.3,3.1,1.3
				c1.1,0,2.2-0.4,3.1-1.3C75.8,36.9,75.8,34.2,74.1,32.4z"/>
			<path class="st0" d="M27.7,34.7c-1.7-1.7-4.5-1.7-6.2,0c-1.7,1.7-1.7,4.5,0,6.2l22.1,22.1c0.9,0.9,2,1.3,3.1,1.3s2.2-0.4,3.1-1.3
				c1.7-1.7,1.7-4.5,0-6.2L27.7,34.7z"/>
		</g>
	</g>
</g>
</svg>
