<?xml version="1.0" encoding="utf-8"?>
<!-- Generator: Adobe Illustrator 24.3.0, SVG Export Plug-In . SVG Version: 6.00 Build 0)  -->
<svg version="1.1" id="Layer_1" xmlns="http://www.w3.org/2000/svg" xmlns:xlink="http://www.w3.org/1999/xlink" x="0px" y="0px"
	 viewBox="0 0 352.1 72" style="enable-background:new 0 0 352.1 72;" xml:space="preserve">
<style type="text/css">
	.st0{fill:#070707;}
	.st1{fill:#5033C1;}
</style>
<g>
	<g>
		<g>
			<path class="st0" d="M99.7,23.1v5.4h-8.8v27.8h-6.7V28.4h-8.8V23h24.3V23.1z"/>
			<path class="st0" d="M112.4,30.7c1.4-0.8,3-1.2,4.7-1.2v7h-1.8c-2.1,0-3.7,0.5-4.7,1.5c-1.1,1-1.6,2.7-1.6,5.1v13.1h-6.7V29.9
				h6.7V34C109.9,32.6,111.1,31.5,112.4,30.7z"/>
			<path class="st0" d="M122.5,35.9c1.1-2.1,2.5-3.6,4.3-4.8c1.8-1.1,3.9-1.7,6.1-1.7c2,0,3.7,0.4,5.2,1.2c1.5,0.8,2.7,1.8,3.5,3
				v-3.8h6.7v26.3h-6.7v-3.8c-0.9,1.2-2,2.3-3.5,3.1s-3.2,1.2-5.2,1.2c-2.2,0-4.2-0.6-6.1-1.7c-1.8-1.1-3.3-2.7-4.3-4.8
				c-1.1-2.1-1.6-4.5-1.6-7.2C120.9,40.3,121.4,38,122.5,35.9z M140.6,38.9c-0.6-1.2-1.5-2-2.6-2.7c-1.1-0.6-2.2-0.9-3.5-0.9
				c-1.2,0-2.4,0.3-3.4,0.9c-1,0.6-1.9,1.5-2.5,2.6c-0.6,1.2-1,2.5-1,4.1s0.3,3,1,4.2c0.6,1.2,1.5,2.1,2.6,2.7c1.1,0.6,2.2,1,3.4,1
				s2.4-0.3,3.5-0.9c1.1-0.6,1.9-1.5,2.6-2.7c0.6-1.2,1-2.5,1-4.2C141.6,41.5,141.3,40.1,140.6,38.9z"/>
			<path class="st0" d="M155.6,35.9c1.1-2.1,2.5-3.6,4.3-4.8c1.8-1.1,3.9-1.7,6.1-1.7c1.7,0,3.3,0.4,4.9,1.1c1.6,0.7,2.8,1.7,3.7,3
				V21.1h6.7v35.2h-6.7v-3.9c-0.8,1.3-2,2.3-3.5,3.1s-3.2,1.2-5.2,1.2c-2.2,0-4.2-0.6-6.1-1.7c-1.8-1.1-3.3-2.7-4.3-4.8
				c-1.1-2.1-1.6-4.5-1.6-7.2C154,40.3,154.6,38,155.6,35.9z M173.8,38.9c-0.6-1.2-1.5-2-2.6-2.7c-1.1-0.6-2.2-0.9-3.5-0.9
				c-1.2,0-2.4,0.3-3.4,0.9c-1,0.6-1.9,1.5-2.5,2.6c-0.6,1.2-1,2.5-1,4.1s0.3,3,1,4.2c0.6,1.2,1.5,2.1,2.6,2.7c1.1,0.6,2.2,1,3.4,1
				s2.4-0.3,3.5-0.9c1.1-0.6,1.9-1.5,2.6-2.7c0.6-1.2,1-2.5,1-4.2C174.8,41.5,174.4,40.1,173.8,38.9z"/>
			<path class="st0" d="M213.2,45.1H194c0.2,1.9,0.8,3.4,2,4.5s2.6,1.6,4.3,1.6c2.5,0,4.2-1.1,5.3-3.2h7.2c-0.8,2.5-2.2,4.6-4.4,6.2
				c-2.2,1.6-4.8,2.4-7.9,2.4c-2.5,0-4.8-0.6-6.8-1.7c-2-1.1-3.6-2.7-4.7-4.8c-1.1-2.1-1.7-4.4-1.7-7.1c0-2.7,0.6-5.1,1.7-7.2
				c1.1-2.1,2.7-3.6,4.7-4.8c2-1.1,4.3-1.7,6.9-1.7c2.5,0,4.7,0.5,6.7,1.6s3.5,2.6,4.6,4.6s1.6,4.3,1.6,6.8
				C213.4,43.5,213.3,44.3,213.2,45.1z M206.5,40.6c0-1.7-0.6-3.1-1.9-4.1c-1.2-1-2.7-1.5-4.4-1.5c-1.6,0-3,0.5-4.2,1.5
				c-1.1,1-1.8,2.4-2.1,4.2h12.6V40.6z"/>
			<path class="st0" d="M259.7,32.5c2,2,3,4.7,3,8.3v15.4H256V41.7c0-2.1-0.5-3.6-1.6-4.7c-1-1.1-2.5-1.6-4.3-1.6s-3.2,0.5-4.3,1.6
				s-1.6,2.7-1.6,4.7v14.5h-6.7V41.7c0-2.1-0.5-3.6-1.6-4.7c-1-1.1-2.5-1.6-4.3-1.6s-3.3,0.5-4.3,1.6c-1.1,1.1-1.6,2.7-1.6,4.7v14.5
				H219V29.9h6.7v3.2c0.9-1.1,2-2,3.3-2.6s2.8-1,4.4-1c2.1,0,3.9,0.4,5.5,1.3s2.9,2.1,3.8,3.7c0.9-1.5,2.1-2.7,3.7-3.7
				c1.6-0.9,3.4-1.4,5.3-1.4C255.1,29.5,257.7,30.5,259.7,32.5z"/>
			<path class="st0" d="M269.8,35.9c1.1-2.1,2.5-3.6,4.3-4.8c1.8-1.1,3.9-1.7,6.1-1.7c2,0,3.7,0.4,5.2,1.2c1.5,0.8,2.7,1.8,3.5,3
				v-3.8h6.7v26.3h-6.7v-3.8c-0.9,1.2-2,2.3-3.5,3.1s-3.2,1.2-5.2,1.2c-2.2,0-4.2-0.6-6.1-1.7c-1.8-1.1-3.3-2.7-4.3-4.8
				c-1.1-2.1-1.6-4.5-1.6-7.2C268.2,40.3,268.8,38,269.8,35.9z M288,38.9c-0.6-1.2-1.5-2-2.6-2.7c-1.1-0.6-2.2-0.9-3.5-0.9
				c-1.2,0-2.4,0.3-3.4,0.9c-1,0.6-1.9,1.5-2.5,2.6c-0.6,1.2-1,2.5-1,4.1s0.3,3,1,4.2c0.6,1.2,1.5,2.1,2.6,2.7c1.1,0.6,2.2,1,3.4,1
				c1.2,0,2.4-0.3,3.5-0.9c1.1-0.6,1.9-1.5,2.6-2.7c0.6-1.2,1-2.5,1-4.2C288.9,41.5,288.6,40.1,288,38.9z"/>
			<path class="st0" d="M310.8,35.4v12.7c0,0.9,0.2,1.5,0.6,1.9s1.1,0.6,2.2,0.6h3.1v5.6h-4.2c-5.6,0-8.4-2.7-8.4-8.2V35.4H301v-5.5
				h3.1v-6.5h6.7v6.5h5.9v5.5H310.8z"/>
			<path class="st0" d="M346.8,45.1h-19.2c0.2,1.9,0.8,3.4,2,4.5s2.6,1.6,4.3,1.6c2.5,0,4.2-1.1,5.3-3.2h7.2
				c-0.8,2.5-2.2,4.6-4.4,6.2c-2.2,1.6-4.8,2.4-7.9,2.4c-2.5,0-4.8-0.6-6.8-1.7c-2-1.1-3.6-2.7-4.7-4.8s-1.7-4.4-1.7-7.1
				c0-2.7,0.6-5.1,1.7-7.2c1.1-2.1,2.7-3.6,4.7-4.8c2-1.1,4.3-1.7,6.9-1.7c2.5,0,4.7,0.5,6.7,1.6s3.5,2.6,4.6,4.6s1.6,4.3,1.6,6.8
				C347,43.5,346.9,44.3,346.8,45.1z M340.1,40.6c0-1.7-0.6-3.1-1.9-4.1c-1.2-1-2.7-1.5-4.4-1.5c-1.6,0-3,0.5-4.2,1.5
				c-1.1,1-1.8,2.4-2.1,4.2h12.6V40.6z"/>
		</g>
		<g>
			<path class="st1" d="M14.9,14.1c-1.6-1.6-4.3-1.6-5.9,0S7.4,18.4,9,20l39.1,39.1c0.8,0.8,1.9,1.2,2.9,1.2s2.1-0.4,2.9-1.2
				c1.6-1.6,1.6-4.3,0-5.9L14.9,14.1z"/>
			<path class="st1" d="M56.4,32.6L35.5,11.7c-1.6-1.6-4.3-1.6-5.9,0s-1.6,4.3,0,5.9l20.9,20.9c0.8,0.8,1.9,1.2,2.9,1.2
				s2.1-0.4,2.9-1.2C58,36.9,58,34.3,56.4,32.6z"/>
			<path class="st1" d="M12.4,34.8c-1.6-1.6-4.3-1.6-5.9,0s-1.6,4.3,0,5.9l20.9,20.9c0.8,0.8,1.9,1.2,2.9,1.2c1.1,0,2.1-0.4,2.9-1.2
				c1.6-1.6,1.6-4.3,0-5.9L12.4,34.8z"/>
		</g>
	</g>
</g>
</svg>
