<?xml version="1.0" encoding="utf-8"?>
<!-- Generator: Adobe Illustrator 24.3.0, SVG Export Plug-In . SVG Version: 6.00 Build 0)  -->
<svg version="1.1" id="Layer_1" xmlns="http://www.w3.org/2000/svg" xmlns:xlink="http://www.w3.org/1999/xlink" x="0px" y="0px"
	 viewBox="0 0 114 107" style="enable-background:new 0 0 114 107;" xml:space="preserve">
<style type="text/css">
	.st0{fill:#5033C1;}
</style>
<g>
	<path class="st0" d="M25.3,10.5c-3.1-3.1-8.1-3.1-11.2,0c-3.1,3.1-3.1,8.1,0,11.2l74.7,74.7c1.6,1.6,3.6,2.3,5.6,2.3
		c2,0,4.1-0.8,5.6-2.3c3.1-3.1,3.1-8.1,0-11.2L25.3,10.5z"/>
	<path class="st0" d="M104.7,45.8l-40-40c-3.1-3.1-8.1-3.1-11.2,0c-3.1,3.1-3.1,8.1,0,11.2l40,40c1.6,1.6,3.6,2.3,5.6,2.3
		c2,0,4.1-0.8,5.6-2.3C107.8,54,107.8,49,104.7,45.8z"/>
	<path class="st0" d="M20.6,49.9c-3.1-3.1-8.1-3.1-11.2,0C6.2,53,6.2,58,9.3,61.2l40,40c1.6,1.6,3.6,2.3,5.6,2.3
		c2,0,4.1-0.8,5.6-2.3c3.1-3.1,3.1-8.1,0-11.2L20.6,49.9z"/>
</g>
</svg>
