<?xml version="1.0" encoding="utf-8"?>
<!-- Generator: Adobe Illustrator 24.3.0, SVG Export Plug-In . SVG Version: 6.00 Build 0)  -->
<svg version="1.1" id="Layer_1" xmlns="http://www.w3.org/2000/svg" xmlns:xlink="http://www.w3.org/1999/xlink" x="0px" y="0px"
	 viewBox="0 0 220 54" style="enable-background:new 0 0 220 54;" xml:space="preserve">
<style type="text/css">
	.st0{fill:#353666;}
</style>
<g>
	<g>
		<g>
			<path class="st0" d="M31.8,20.64c-0.73,0.74-0.73,1.93,0,2.66l11.65,11.65c-0.72,1.34-1.59,2.58-2.61,3.71L19.57,17.37
				c-0.73-0.73-1.92-0.73-2.66,0c-0.73,0.73-0.73,1.92,0,2.66l21.16,21.16c-1.17,0.87-2.45,1.6-3.81,2.18L22.99,32.11
				c-0.73-0.74-1.92-0.74-2.66,0c-0.74,0.73-0.74,1.92,0,2.66l9.82,9.82c-1.06,0.19-2.15,0.28-3.27,0.28
				c-10.38,0-18.79-8.41-18.79-18.79S16.51,7.28,26.89,7.28s18.79,8.41,18.79,18.79c0,1.76-0.24,3.47-0.7,5.09L34.46,20.64
				C33.73,19.9,32.54,19.9,31.8,20.64z"/>
		</g>
	</g>
	<g>
		<path class="st0" d="M64.11,22.8h-7.17v-3.88c6.52,0,12.05,0,18.61,0v3.88h-7.17v18.74h-4.26V22.8z"/>
		<path class="st0" d="M76.84,25.61l0.29,1.84c1.23-1.97,2.88-2.26,4.49-2.26c1.65,0,3.23,0.65,4.1,1.52l-1.78,3.42
			c-0.81-0.68-1.55-1.03-2.84-1.03c-2.07,0-3.97,1.1-3.97,4.04v8.4h-3.94V25.61H76.84z"/>
		<path class="st0" d="M98.55,25.61h3.78v15.93h-3.71l-0.19-2.33c-0.9,1.87-3.39,2.78-5.17,2.81c-4.72,0.03-8.21-2.88-8.21-8.46
			c0-5.49,3.65-8.37,8.3-8.33c2.13,0,4.17,1,5.07,2.58L98.55,25.61z M88.99,33.56c0,3.04,2.1,4.85,4.72,4.85c6.2,0,6.2-9.66,0-9.66
			C91.09,28.75,88.99,30.52,88.99,33.56z"/>
		<path class="st0" d="M120.9,18.96v22.58h-3.68l-0.26-2.2c-1.23,1.91-3.2,2.55-5.14,2.55c-4.68,0-8.21-3.1-8.21-8.33
			c0-5.49,3.46-8.33,8.11-8.33c1.68,0,4.3,0.9,5.23,2.55v-8.82H120.9z M107.56,33.56c0,2.78,2,4.68,4.52,4.68
			c2.49,0,4.62-1.81,4.62-4.68c0-2.78-2.13-4.65-4.62-4.65C109.57,28.91,107.56,30.68,107.56,33.56z"/>
		<path class="st0" d="M126.75,34.98c0.26,1.97,1.97,3.39,4.75,3.39c1.45,0,3.36-0.55,4.26-1.49l2.52,2.49
			c-1.68,1.74-4.43,2.58-6.85,2.58c-5.49,0-8.75-3.39-8.75-8.5c0-4.85,3.29-8.33,8.46-8.33c5.33,0,8.66,3.29,8.04,9.85H126.75z
			 M135.41,31.72c-0.26-2.07-1.87-3.1-4.13-3.1c-2.13,0-3.88,1.03-4.46,3.1H135.41z"/>
		<path class="st0" d="M160.93,25.16l-7.36,9.82h-0.84l-7.2-9.85v16.44h-4.26V18.96h4.91l7.07,9.72l7.07-9.72h4.88v22.61h-4.26
			V25.16z"/>
		<path class="st0" d="M180.58,25.61h3.78v15.93h-3.71l-0.19-2.33c-0.9,1.87-3.39,2.78-5.17,2.81c-4.72,0.03-8.21-2.88-8.21-8.46
			c0-5.49,3.65-8.37,8.3-8.33c2.13,0,4.17,1,5.07,2.58L180.58,25.61z M171.02,33.56c0,3.04,2.1,4.85,4.72,4.85
			c6.2,0,6.2-9.66,0-9.66C173.12,28.75,171.02,30.52,171.02,33.56z"/>
		<path class="st0" d="M191.27,21.12v4.52h4.39v3.39h-4.43v6.88c0,1.52,0.84,2.26,2.07,2.26c0.61,0,1.33-0.19,1.91-0.48l1.1,3.36
			c-1.13,0.45-2.07,0.65-3.26,0.68c-3.46,0.13-5.72-1.84-5.72-5.81v-6.88h-2.97v-3.39h2.97v-4.1L191.27,21.12z"/>
		<path class="st0" d="M200.67,34.98c0.26,1.97,1.97,3.39,4.75,3.39c1.45,0,3.36-0.55,4.26-1.49l2.52,2.49
			c-1.68,1.74-4.43,2.58-6.85,2.58c-5.49,0-8.75-3.39-8.75-8.5c0-4.85,3.29-8.33,8.46-8.33c5.33,0,8.66,3.29,8.04,9.85H200.67z
			 M209.33,31.72c-0.26-2.07-1.87-3.1-4.13-3.1c-2.13,0-3.88,1.03-4.46,3.1H209.33z"/>
	</g>
</g>
</svg>
