<svg xmlns="http://www.w3.org/2000/svg" width="334.98" height="68.36" viewBox="0 0 334.98 68.36">
  <g id="Group_17" data-name="Group 17" transform="translate(-372.51 -500.52)">
    <g id="Group_7" data-name="Group 7">
      <g id="Group_6" data-name="Group 6">
        <path id="Path_11" data-name="Path 11" d="M451.69,530.2v6.35h11.74v30.67h6.98V536.55h11.74V530.2Z" fill="#21ddbb"/>
        <path id="Path_12" data-name="Path 12" d="M492.11,540.46c-2.64,0-5.34.47-7.36,3.7l-.47-3.01H478.3v26.07h6.45V553.47c0-4.81,3.12-6.61,6.51-6.61a6.427,6.427,0,0,1,4.65,1.69l2.91-5.61A9.929,9.929,0,0,0,492.11,540.46Z" fill="#21ddbb"/>
        <path id="Path_13" data-name="Path 13" d="M519.82,541.15l-.22,3.6c-1.48-2.59-4.81-4.23-8.3-4.23-7.62-.05-13.59,4.65-13.59,13.65,0,9.15,5.71,13.91,13.43,13.86,2.91-.06,6.98-1.54,8.46-4.6l.32,3.81H526V541.17h-6.18Zm-7.93,20.94c-4.28,0-7.72-2.96-7.72-7.94s3.44-7.88,7.72-7.88C522.04,546.28,522.04,562.09,511.89,562.09Z" fill="#21ddbb"/>
        <path id="Path_14" data-name="Path 14" d="M549.97,530.25v14.44c-1.53-2.7-5.82-4.18-8.57-4.18-7.61,0-13.27,4.65-13.27,13.65,0,8.57,5.77,13.65,13.43,13.65,3.17,0,6.4-1.05,8.41-4.18l.43,3.6h6.03V530.26h-6.46Zm-7.98,31.58a7.329,7.329,0,0,1-7.41-7.67,7.188,7.188,0,0,1,7.41-7.61,7.64,7.64,0,0,1,0,15.28Z" fill="#21ddbb"/>
        <path id="Path_15" data-name="Path 15" d="M573.19,540.35c-8.46,0-13.86,5.71-13.86,13.65,0,8.36,5.34,13.91,14.33,13.91,3.97,0,8.47-1.37,11.22-4.23l-4.13-4.07c-1.48,1.53-4.6,2.43-6.98,2.43-4.55,0-7.35-2.33-7.78-5.55h20.37C587.37,545.75,581.92,540.35,573.19,540.35Zm-7.09,10.79c.95-3.38,3.81-5.08,7.3-5.08,3.7,0,6.35,1.69,6.77,5.08Z" fill="#21ddbb"/>
        <path id="Path_16" data-name="Path 16" d="M620.95,530.25l-11.58,15.92-11.58-15.92h-8.04v37.03h6.98V540.35l11.79,16.14h1.38l12.06-16.08v26.87h6.98V530.25Z" fill="#fff"/>
        <path id="Path_17" data-name="Path 17" d="M654.12,541.15l-.21,3.6c-1.48-2.59-4.81-4.23-8.3-4.23-7.62-.05-13.59,4.65-13.59,13.65,0,9.15,5.71,13.91,13.43,13.86,2.91-.06,6.98-1.54,8.46-4.6l.32,3.81h6.08V541.17h-6.19Zm-7.93,20.94c-4.28,0-7.73-2.96-7.73-7.94s3.44-7.88,7.73-7.88C656.34,546.28,656.34,562.09,646.19,562.09Z" fill="#fff"/>
        <path id="Path_18" data-name="Path 18" d="M678.08,560.93a7.466,7.466,0,0,1-3.12.79c-2.01,0-3.38-1.22-3.38-3.7V546.76h7.25v-5.55h-7.2V533.8l-6.45.69v6.72h-4.87v5.55h4.87v11.26c0,6.51,3.7,9.73,9.36,9.52a14.379,14.379,0,0,0,5.34-1.11Z" fill="#fff"/>
        <path id="Path_19" data-name="Path 19" d="M694.21,540.35c-8.46,0-13.86,5.71-13.86,13.65,0,8.36,5.34,13.91,14.33,13.91,3.97,0,8.46-1.37,11.21-4.23l-4.12-4.07c-1.48,1.53-4.6,2.43-6.98,2.43-4.55,0-7.36-2.33-7.78-5.55h20.36C708.38,545.75,702.94,540.35,694.21,540.35Zm-7.09,10.79c.96-3.38,3.81-5.08,7.3-5.08,3.7,0,6.35,1.69,6.77,5.08Z" fill="#fff"/>
      </g>
    </g>
    <g id="Group_9" data-name="Group 9">
      <g id="Group_8" data-name="Group 8">
        <path id="Path_20" data-name="Path 20" d="M414.32,526.91a2.837,2.837,0,0,0,0,4.03l21.55,21.55a33.954,33.954,0,0,1-4.16,5.5l-38.74-38.73a2.85,2.85,0,0,0-4.03,4.03l38.54,38.54a34.176,34.176,0,0,1-5.98,3.68l-20.87-20.87a2.85,2.85,0,0,0-4.03,4.03l19.02,19.02a34.1,34.1,0,1,1,22.93-20.57l-20.2-20.2A2.846,2.846,0,0,0,414.32,526.91Z" fill="#21ddbb"/>
      </g>
    </g>
  </g>
</svg>
