<svg xmlns="http://www.w3.org/2000/svg" width="334.98" height="68.36" viewBox="0 0 334.98 68.36">
  <g id="Group_16" data-name="Group 16" transform="translate(-1589.51 -505.83)">
    <g id="Group_2" data-name="Group 2">
      <g id="Group_1" data-name="Group 1">
        <path id="Path_1" data-name="Path 1" d="M1668.69,535.52v6.35h11.74v30.67h6.98V541.87h11.74v-6.35Z" fill="#21ddbb"/>
        <path id="Path_2" data-name="Path 2" d="M1709.11,545.78c-2.64,0-5.34.47-7.36,3.7l-.47-3.01h-5.98v26.07h6.45V558.79c0-4.81,3.12-6.61,6.51-6.61a6.427,6.427,0,0,1,4.65,1.69l2.91-5.61A9.929,9.929,0,0,0,1709.11,545.78Z" fill="#21ddbb"/>
        <path id="Path_3" data-name="Path 3" d="M1736.82,546.47l-.22,3.6c-1.48-2.59-4.81-4.23-8.3-4.23-7.62-.05-13.59,4.65-13.59,13.65,0,9.15,5.71,13.91,13.43,13.86,2.91-.06,6.98-1.54,8.46-4.6l.32,3.81H1743V546.49h-6.18Zm-7.93,20.94c-4.28,0-7.72-2.96-7.72-7.94s3.44-7.88,7.72-7.88C1739.04,551.59,1739.04,567.41,1728.89,567.41Z" fill="#21ddbb"/>
        <path id="Path_4" data-name="Path 4" d="M1766.97,535.57v14.44c-1.53-2.7-5.82-4.18-8.57-4.18-7.61,0-13.27,4.65-13.27,13.65,0,8.57,5.77,13.65,13.43,13.65,3.17,0,6.4-1.05,8.41-4.18l.43,3.6h6.03V535.58h-6.46Zm-7.98,31.57a7.329,7.329,0,0,1-7.41-7.67,7.188,7.188,0,0,1,7.41-7.61,7.64,7.64,0,0,1,0,15.28Z" fill="#21ddbb"/>
        <path id="Path_5" data-name="Path 5" d="M1790.19,545.67c-8.46,0-13.86,5.71-13.86,13.65,0,8.36,5.34,13.91,14.33,13.91,3.97,0,8.47-1.37,11.22-4.23l-4.13-4.07c-1.48,1.53-4.6,2.43-6.98,2.43-4.55,0-7.35-2.33-7.78-5.55h20.37C1804.37,551.06,1798.92,545.67,1790.19,545.67Zm-7.09,10.79c.95-3.38,3.81-5.08,7.3-5.08,3.7,0,6.35,1.69,6.77,5.08Z" fill="#21ddbb"/>
        <path id="Path_6" data-name="Path 6" d="M1837.95,535.57l-11.58,15.92-11.58-15.92h-8.04V572.6h6.98V545.67l11.79,16.13h1.38l12.06-16.08v26.87h6.98V535.56h-7.99Z" fill="#333"/>
        <path id="Path_7" data-name="Path 7" d="M1871.12,546.47l-.21,3.6c-1.48-2.59-4.81-4.23-8.3-4.23-7.62-.05-13.59,4.65-13.59,13.65,0,9.15,5.71,13.91,13.43,13.86,2.91-.06,6.98-1.54,8.46-4.6l.32,3.81h6.08V546.49h-6.19Zm-7.93,20.94c-4.28,0-7.73-2.96-7.73-7.94s3.44-7.88,7.73-7.88C1873.34,551.59,1873.34,567.41,1863.19,567.41Z" fill="#333"/>
        <path id="Path_8" data-name="Path 8" d="M1895.08,566.25a7.466,7.466,0,0,1-3.12.79c-2.01,0-3.38-1.22-3.38-3.7V552.08h7.25v-5.55h-7.2v-7.41l-6.45.69v6.72h-4.87v5.55h4.87v11.26c0,6.51,3.7,9.73,9.36,9.52a14.379,14.379,0,0,0,5.34-1.11Z" fill="#333"/>
        <path id="Path_9" data-name="Path 9" d="M1911.21,545.67c-8.46,0-13.86,5.71-13.86,13.65,0,8.36,5.34,13.91,14.33,13.91,3.97,0,8.46-1.37,11.21-4.23l-4.12-4.07c-1.48,1.53-4.6,2.43-6.98,2.43-4.55,0-7.36-2.33-7.78-5.55h20.36C1925.38,551.06,1919.94,545.67,1911.21,545.67Zm-7.09,10.79c.96-3.38,3.81-5.08,7.3-5.08,3.7,0,6.35,1.69,6.77,5.08Z" fill="#333"/>
      </g>
    </g>
    <g id="Group_4" data-name="Group 4">
      <g id="Group_3" data-name="Group 3">
        <path id="Path_10" data-name="Path 10" d="M1631.32,532.22a2.837,2.837,0,0,0,0,4.03l21.55,21.55a33.947,33.947,0,0,1-4.16,5.5l-38.74-38.73a2.85,2.85,0,0,0-4.03,4.03l38.54,38.54a34.176,34.176,0,0,1-5.98,3.68l-20.87-20.87a2.85,2.85,0,0,0-4.03,4.03L1632.62,573a34.1,34.1,0,1,1,22.93-20.57l-20.2-20.2A2.846,2.846,0,0,0,1631.32,532.22Z" fill="#21ddbb"/>
      </g>
    </g>
  </g>
</svg>
