<svg width="790" height="200" xmlns="http://www.w3.org/2000/svg">
 <style type="text/css">.st0{fill:#D92F27;}
	.st1{fill:#231F20;}
	.st2{fill:none;}</style>

 <g>
  <title>background</title>
  <rect fill="none" id="canvas_background" height="202" width="792" y="-1" x="-1"/>
 </g>
 <g>
  <title>Layer 1</title>
  <g stroke="null" id="svg_1">
   <g stroke="null" id="svg_2">
    <polygon stroke="null" id="svg_3" points="416.29998779296875,20 366.5,69.89999389648438 379.6000061035156,83 429.3999938964844,33.099998474121094 " class="st0"/>
    <rect stroke="null" id="svg_4" height="53.5" width="18.5" class="st0" y="9.7" x="326.2"/>
    <path stroke="null" id="svg_5" d="m332.9,79.9c-11.7,0 -21.8,4.2 -30.2,12.7c-8.5,8.5 -12.7,18.9 -12.7,30.8c0,11.9 4.2,22.3 12.7,30.6c8.3,8.6 18.5,12.9 30.2,12.9c11.7,0 22,-4.4 30.6,-12.9c8.3,-8.4 12.5,-18.7 12.5,-30.6c0,-11.9 -4.2,-22.3 -12.5,-30.8c-8.6,-8.6 -18.9,-12.7 -30.6,-12.7zm16.1,59.6c-4.4,4.6 -9.7,6.7 -16.1,6.7c-6.2,0 -11.5,-2.2 -15.9,-6.7c-4.4,-4.6 -6.8,-9.9 -6.8,-16.1c0,-6.5 2.4,-11.9 6.8,-16.3c4.4,-4.6 9.7,-6.8 15.9,-6.6c6.3,-0.2 11.7,2 16.3,6.6c4.2,4.4 6.4,9.8 6.6,16.3c-0.3,6.2 -2.4,11.5 -6.8,16.1z" class="st0"/>
    <path stroke="null" id="svg_6" d="m61.1,79.1c6.4,0 12.1,1.8 17.7,5.4c5,3.4 8.9,8.1 11.7,13.7l21.6,0c-3.2,-11.5 -9.3,-21.1 -18.7,-28.4c-9.5,-7.6 -20.4,-11.3 -32.4,-11.1c-14.9,-0.2 -27.2,5 -37.5,15.7c-10.5,10.5 -15.7,23.1 -15.7,38c0,14.7 5.1,27.6 15.7,38.2c10.3,10.3 22.6,15.5 37.5,15.5c11.9,0 22.8,-3.6 32.4,-11c9.3,-7.6 15.5,-16.9 18.7,-28.4l-21.6,0c-2.8,5.6 -6.8,10.1 -11.7,13.7c-5.6,3.4 -11.3,5.2 -17.7,5.2c-9.1,0 -16.9,-3.4 -23.2,-9.7c-6.5,-6.6 -9.7,-14.3 -9.5,-23.5c-0.2,-9.1 3,-16.9 9.5,-23.4c6.4,-6.5 14.1,-9.9 23.2,-9.9z" class="st0"/>
    <path stroke="null" id="svg_7" d="m216.2,85c-7.1,-3.8 -15.1,-5.6 -24,-5.4c-13.9,-0.2 -23.6,3.6 -29.2,10.9c-3.6,4.6 -5.4,10.5 -6,18.1l20.6,0c0.4,-3.6 1.6,-6 3,-7.6c2.2,-2.8 5.7,-4.2 10.9,-4c4.4,-0.2 7.7,0.6 10.1,2c2.4,1.2 3.4,3.6 3.6,7c0,2.8 -1.6,5 -4.8,6.4l-15.9,2.6c-7.3,1 -13.3,2.8 -17.9,5.4c-7.7,4.6 -11.5,11.9 -11.3,22.5c-0.2,7.3 2.2,13.3 6.9,17.7c4.2,3.6 9.9,5.6 16.9,5.8c11.3,-0.2 20.2,-3 26.6,-8.6l0,8.6l20.7,0l0,-60.8c0.1,-10 -3.5,-17 -10.2,-20.6zm-11.3,47.5c0,7.1 -2,12.1 -5.7,14.9c-4,2.8 -8.1,4.2 -12.9,4.2c-3,0 -5.4,-0.8 -7.3,-2.4c-2,-1.8 -3,-4.4 -3,-8.1c0,-4.2 1.6,-7.2 5,-9.4c2,-1.2 5.4,-2.2 9.7,-2.8l10.3,-2.6l4,-2.2l0,8.4l-0.1,0z" class="st0"/>
    <rect stroke="null" id="svg_8" height="107.7" width="20.6" class="st0" y="58.6" x="122.7"/>
    <path stroke="null" id="svg_9" d="m282.7,80.5l-8,2.2c-5.5,2.2 -10.5,6 -14.7,11.7l0,-10.5l-19.7,-0.2l0,82.7l20.4,0l0,-39.6c0,-6.8 0.8,-11.5 2.6,-14.5c1.4,-3.2 4,-5.7 7.1,-7.9c3.6,-2.4 7.3,-3.6 11.3,-3.6l6.3,0.4l-0.2,-21.1l-5.1,0.4z" class="st0"/>
    <polyline stroke="null" id="svg_10" points="443.29998779296875,109.19999694824219 443.29998779296875,103.69999694824219 388.70001220703125,103.69999694824219 388.70001220703125,122.19999694824219 443.29998779296875,122.19999694824219 443.29998779296875,109.19999694824219 " class="st0"/>
    <g stroke="null" id="svg_11">
     <path stroke="null" id="svg_12" d="m646.1,162.8l-65.1,0c-6.4,0 -10.7,-6.7 -8.1,-12.5l13.4,-29.4c1.4,-3.2 4.6,-5.2 8.1,-5.2l55.1,0c1.9,0 3.7,-1.1 4.5,-2.9l1.1,-2.4c0.9,-1.9 -0.5,-4 -2.6,-4l-55.1,0c-2.1,0 -3.5,-2.2 -2.6,-4l4.4,-9.6c1.4,-3.1 4.6,-5.2 8,-5.2l74.4,0c2.1,0 3.5,2.2 2.6,4l-30.2,65.9c-1.3,3.2 -4.4,5.3 -7.9,5.3zm-45.2,-18.8l35.7,0c1.9,0 3.7,-1.1 4.5,-2.9l1.2,-2.6c0.9,-1.9 -0.5,-4 -2.6,-4l-37,0c-1.1,0 -2.1,0.7 -2.6,1.7l-1.8,3.8c-0.8,1.8 0.5,4 2.6,4z" class="st1"/>
     <path stroke="null" id="svg_13" d="m575.3,87.6c4.1,0 6.8,4.3 5.1,8l-10.7,23c-6.3,13.8 -20.1,22.7 -35.3,22.7l-37.4,0c-0.9,0 -1.8,0.5 -2.2,1.4l-6.9,15c-1.4,3.2 -4.6,5.2 -8.1,5.2l-13.8,0c-0.4,0 -0.7,-0.5 -0.6,-0.9l31.4,-68.9c1.5,-3.3 4.9,-5.5 8.5,-5.5l70,0zm-70.3,34.9l32.3,0c6,0 11.5,-3.5 14,-9l1.4,-3c0.9,-1.9 -0.5,-4 -2.6,-4l-36.9,0c-1.1,0 -2.1,0.7 -2.6,1.7l-6.2,13.6c-0.1,0.2 0.2,0.7 0.6,0.7z" class="st1"/>
     <path stroke="null" id="svg_14" d="m779.7,87.6l-21.1,0c-1.8,0 -3.5,0.5 -5,1.6l-26.7,18.3l-10.6,-15.9c-1.6,-2.5 -4.4,-3.9 -7.3,-3.9l-12.5,-0.1c-2.3,0 -3.7,2.5 -2.4,4.4l21.3,31.9l-17.4,38.1c-0.2,0.4 0.1,0.9 0.6,0.9l14,0c3.5,0 6.6,-2 8.1,-5.2l15.4,-33.4l45.4,-31.4c2.1,-1.7 1,-5.3 -1.8,-5.3z" class="st1"/>
    </g>
   </g>
   <rect stroke="null" x="-78" y="-77" id="svg_15" height="330.7" width="946.8" class="st2"/>
  </g>
 </g>
</svg>